{"title":"Bunraku (2010) 1080p","uid":12232070,"size":4251810258,"categoryP":"video","categoryS":"hd___movies","magnet":"?xt=urn:btih:9fd72d8b3d4cf35441a665b1cce13073db0501ee&amp;dn=Bunraku+%282010%29+1080p&amp;tr=udp%3A%2F%2Ftracker.openbittorrent.com%3A80&amp;tr=udp%3A%2F%2Fopen.demonii.com%3A1337&amp;tr=udp%3A%2F%2Ftracker.coppersurfer.tk%3A6969&amp;tr=udp%3A%2F%2Fexodus.desync.com%3A6969","seeders":0,"leechers":1,"uploader":"AlienMethod","files":7,"time":1439586767,"description":"x264/mp4\n6-Channel AC3@448kbps (audio 1)\n2-Channel AAC@160kbps (audio 2)\nEnglish Subs\n\n&quot;The story of a a young man who has spent his life searching for revenge only\nto find himself up against a bigger challenge than he originally bargained for.&quot;\n\nGeneral\nComplete name : F:TorrentsBunraku (2010) 1080pBunraku (2010) 1080p.mp4\nFormat : MPEG-4\nFormat profile : Base Media\nCodec ID : isom\nFile size : 3.96 GiB\nDuration : 2h 4mn\nOverall bit rate mode : Variable\nOverall bit rate : 4 559 Kbps\nEncoded date : UTC 2015-08-14 16:10:22\nTagged date : UTC 2015-08-14 16:10:22\nWriting application : My MP4Box GUI 0.6.0.6 \n\nVideo\nID : 1\nFormat : AVC\nFormat/Info : Advanced Video Codec\nFormat profile : &lt;a class=&quot;__cf_email__&quot; href=&quot;/cdn-cgi/l/email-protection&quot; data-cfemail=&quot;f4bc9d939cb4b8c0dac4&quot;&gt;[email&amp;#160;protected]&lt;/a&gt;&lt;script data-cfhash='f9e31' type=&quot;text/javascript&quot;&gt;\n/* &lt;![CDATA[ */!function(){try{var t=&quot;currentScript&quot;in document?document.currentScript:function(){for(var t=document.getElementsByTagName(&quot;script&quot;),e=t.length;e--;)if(t[e].getAttribute(&quot;data-cfhash&quot;))return t[e]}();if(t&amp;&amp;t.previousSibling){var e,r,n,i,c=t.previousSibling,a=c.getAttribute(&quot;data-cfemail&quot;);if(a){for(e=&quot;&quot;,r=parseInt(a.substr(0,2),16),n=2;a.length-n;n+=2)i=parseInt(a.substr(n,2),16)^r,e+=String.fromCharCode(i);e=document.createTextNode(e),c.parentNode.replaceChild(e,c)}t.parentNode.removeChild(t);}}catch(u){}}()/* ]]&gt; */&lt;/script&gt;\nFormat settings, CABAC : Yes\nFormat settings, ReFrames : 4 frames\nCodec ID : avc1\nCodec ID/Info : Advanced Video Coding\nDuration : 2h 4mn\nBit rate : 3 936 Kbps\nMaximum bit rate : 35.3 Mbps\nWidth : 1 920 pixels\nHeight : 816 pixels\nDisplay aspect ratio : 2.35:1\nFrame rate mode : Constant\nFrame rate : 24.000 fps\nColor space : YUV\nChroma subsampling : 4:2:0\nBit depth : 8 bits\nScan type : Progressive\nBits/(Pixel*Frame) : 0.105\nStream size : 3.42 GiB (86%)\nTitle : Bunraku (2010) 1080p_track1_und.h264\nWriting library : x264 core 142 r2479 dd79a61\nEncoded date : UTC 2015-08-14 16:10:22\nTagged date : UTC 2015-08-14 16:10:42\n\nAudio #1\nID : 2\nFormat : AC-3\nFormat/Info : Audio Coding 3\nMode extension : CM (complete main)\nFormat settings, Endianness : Big\nCodec ID : ac-3\nDuration : 2h 4mn\nBit rate mode : Constant\nBit rate : 448 Kbps\nChannel(s) : 6 channels\nChannel positions : Front: L C R, Side: L R, LFE\nSampling rate : 48.0 KHz\nBit depth : 16 bits\nCompression mode : Lossy\nStream size : 398 MiB (10%)\nTitle : Bunraku (2010) 1080p_track2_und.ac3\nEncoded date : UTC 2015-08-14 16:10:38\nTagged date : UTC 2015-08-14 16:10:42\n\nAudio #2\nID : 3\nFormat : AAC\nFormat/Info : Advanced Audio Codec\nFormat profile : LC\nCodec ID : 40\nDuration : 2h 4mn\nBit rate mode : Variable\nBit rate : 171 Kbps\nMaximum bit rate : 207 Kbps\nChannel(s) : 2 channels\nChannel positions : Front: L R\nSampling rate : 48.0 KHz\nCompression mode : Lossy\nStream size : 152 MiB (4%)\nTitle : Bunraku (2010) 1080p_track2_und_Output.m4a\nEncoded date : UTC 2015-08-14 16:10:40\nTagged date : UTC 2015-08-14 16:10:42","torrent":{"xt":"urn:btih:9fd72d8b3d4cf35441a665b1cce13073db0501ee","amp;dn":"Bunraku+%282010%29+1080p","amp;tr":["udp%3A%2F%2Ftracker.openbittorrent.com%3A80","udp%3A%2F%2Fopen.demonii.com%3A1337","udp%3A%2F%2Ftracker.coppersurfer.tk%3A6969","udp%3A%2F%2Fexodus.desync.com%3A6969"],"infoHash":"9fd72d8b3d4cf35441a665b1cce13073db0501ee","infoHashBuffer":{"type":"Buffer","data":[159,215,45,139,61,76,243,84,65,166,101,177,204,225,48,115,219,5,1,238]},"announce":[],"urlList":[]}}